<svg id="have-logo" width="512" height="512" viewBox="0 0 512 512" xmlns="http://www.w3.org/2000/svg">
            <defs>
                <radialGradient id="bgGrad" cx="50%" cy="50%" r="75%">
                    <stop offset="0%" stop-color="#362A26"/>
                    <stop offset="100%" stop-color="#1E1715"/>
                </radialGradient>
                <linearGradient id="orangeGrad" x1="0%" y1="0%" x2="100%" y2="100%">
                    <stop offset="0%" stop-color="#FF8A65"/>
                    <stop offset="100%" stop-color="#FF7043"/>
                </linearGradient>
                <filter id="dropShadow" x="-20%" y="-20%" width="140%" height="140%">
                    <feDropShadow dx="0" dy="12" stdDeviation="12" flood-color="#000000" flood-opacity="0.4"/>
                </filter>
                <filter id="glow" x="-50%" y="-50%" width="200%" height="200%">
                    <feGaussianBlur stdDeviation="6" result="blur"/>
                    <feComposite in="SourceGraphic" in2="blur" operator="over"/>
                </filter>
            </defs>

            <!-- Base App Icon Background -->
            <rect width="512" height="512" rx="115" fill="url(#bgGrad)"/>
            <rect x="12" y="12" width="488" height="488" rx="103" fill="none" stroke="#4A3A35" stroke-width="4" opacity="0.6"/>

            <!-- Main 'H' Structure -->
            <g filter="url(#dropShadow)">
                
                <!-- Audio Waveform (Left Pillar) -->
                <rect x="152" y="150" width="16" height="140" rx="8" fill="#EAE0D5"/>
                <rect x="176" y="100" width="16" height="240" rx="8" fill="#EAE0D5"/>
                <rect x="200" y="130" width="16" height="180" rx="8" fill="#EAE0D5"/>

                <!-- Film Strip (Right Pillar) -->
                <rect x="316" y="100" width="60" height="240" rx="12" fill="#EAE0D5"/>
                <rect x="336" y="112" width="20" height="16" rx="4" fill="#1E1715"/>
                <rect x="336" y="162" width="20" height="16" rx="4" fill="#1E1715"/>
                <rect x="336" y="212" width="20" height="16" rx="4" fill="#1E1715"/>
                <rect x="336" y="262" width="20" height="16" rx="4" fill="#1E1715"/>
                <rect x="336" y="312" width="20" height="16" rx="4" fill="#1E1715"/>

                <!-- Play Button (Floating Crossbar uniting Audio and Video) -->
                <polygon points="236,175 296,220 236,265" fill="url(#orangeGrad)" stroke="url(#orangeGrad)" stroke-width="16" stroke-linejoin="round"/>
            </g>

            <!-- AI Sparkles -->
            <g filter="url(#glow)">
                <path d="M 392,80 Q 392,100 412,100 Q 392,100 392,120 Q 392,100 372,100 Q 392,100 392,80 Z" fill="#FF7043"/>
                <path d="M 422,58 Q 422,70 434,70 Q 422,70 422,82 Q 422,70 410,70 Q 422,70 422,58 Z" fill="#00E676"/>
                <path d="M 132,100 Q 132,110 142,110 Q 132,110 132,120 Q 132,110 122,110 Q 132,110 132,100 Z" fill="#EAE0D5" opacity="0.7"/>
            </g>

            <!-- Typography -->
            <text x="256" y="415" font-family="-apple-system, BlinkMacSystemFont, 'Segoe UI', Roboto, Helvetica, Arial, sans-serif" font-weight="900" font-size="56" fill="#EAE0D5" text-anchor="middle" letter-spacing="8">H.A.V.E.</text>
            <text x="256" y="455" font-family="-apple-system, BlinkMacSystemFont, 'Segoe UI', Roboto, Helvetica, Arial, sans-serif" font-weight="700" font-size="20" fill="#FF7043" text-anchor="middle" letter-spacing="6">PRO EDITOR</text>
        </svg>