<svg id="have-logo" width="512" height="512" viewBox="0 0 512 512" xmlns="http://www.w3.org/2000/svg">
            <defs>
                <radialGradient id="bgGrad" cx="50%" cy="50%" r="75%">
                    <stop offset="0%" stop-color="#362A26"/>
                    <stop offset="100%" stop-color="#1E1715"/>
                </radialGradient>
                <linearGradient id="orangeGrad" x1="0%" y1="0%" x2="100%" y2="100%">
                    <stop offset="0%" stop-color="#FF8A65"/>
                    <stop offset="100%" stop-color="#FF7043"/>
                </linearGradient>
                <filter id="dropShadow" x="-20%" y="-20%" width="140%" height="140%">
                    <feDropShadow dx="0" dy="12" stdDeviation="12" flood-color="#000000" flood-opacity="0.4"/>
                </filter>
                <filter id="glow" x="-50%" y="-50%" width="200%" height="200%">
                    <feGaussianBlur stdDeviation="6" result="blur"/>
                    <feComposite in="SourceGraphic" in2="blur" operator="over"/>
                </filter>
            </defs>

            <!-- Base App Icon Background -->
            <rect width="512" height="512" rx="115" fill="url(#bgGrad)"/>
            <rect x="12" y="12" width="488" height="488" rx="103" fill="none" stroke="#4A3A35" stroke-width="4" opacity="0.6"/>

            <!-- Main 'H' Structure -->
            <g filter="url(#dropShadow)">
                
                <!-- Audio Waveform (Left Pillar) -->
                <rect x="152" y="150" width="12" height="140" rx="6" fill="#EAE0D5"/>
                <rect x="170" y="100" width="12" height="240" rx="6" fill="#EAE0D5"/>
                <rect x="188" y="130" width="12" height="180" rx="6" fill="#EAE0D5"/>

                <!-- Film Strip (Right Pillar) -->
                <rect x="316" y="100" width="44" height="240" rx="12" fill="#EAE0D5"/>
                <!-- Film Holes (Mathematically centered) -->
                <rect x="330" y="114" width="16" height="12" rx="4" fill="#1E1715"/>
                <rect x="330" y="164" width="16" height="12" rx="4" fill="#1E1715"/>
                <rect x="330" y="214" width="16" height="12" rx="4" fill="#1E1715"/>
                <rect x="330" y="264" width="16" height="12" rx="4" fill="#1E1715"/>
                <rect x="330" y="314" width="16" height="12" rx="4" fill="#1E1715"/>

                <!-- Play Button (Crossbar uniting Audio and Video) -->
                <polygon points="192,165 306,220 192,275" fill="url(#orangeGrad)" stroke="url(#orangeGrad)" stroke-width="20" stroke-linejoin="round"/>
            </g>

            <!-- AI Sparkles -->
            <g filter="url(#glow)">
                <!-- Primary Orange Sparkle -->
                <path d="M 392,80 Q 392,100 412,100 Q 392,100 392,120 Q 392,100 372,100 Q 392,100 392,80 Z" fill="#FF7043"/>
                <!-- Secondary Green Sparkle -->
                <path d="M 422,58 Q 422,70 434,70 Q 422,70 422,82 Q 422,70 410,70 Q 422,70 422,58 Z" fill="#00E676"/>
                <!-- Tertiary Beige Sparkle (Near Audio) -->
                <path d="M 132,100 Q 132,110 142,110 Q 132,110 132,120 Q 132,110 122,110 Q 132,110 132,100 Z" fill="#EAE0D5" opacity="0.7"/>
            </g>

            <!-- Typography -->
            <text x="256" y="415" font-family="-apple-system, BlinkMacSystemFont, 'Segoe UI', Roboto, Helvetica, Arial, sans-serif" font-weight="900" font-size="56" fill="#EAE0D5" text-anchor="middle" letter-spacing="8">H.A.V.E.</text>
            <text x="256" y="455" font-family="-apple-system, BlinkMacSystemFont, 'Segoe UI', Roboto, Helvetica, Arial, sans-serif" font-weight="700" font-size="20" fill="#FF7043" text-anchor="middle" letter-spacing="6">PRO EDITOR</text>
        </svg>